<svg xmlns="http://www.w3.org/2000/svg" xmlns:xlink="http://www.w3.org/1999/xlink" width="4200" zoomAndPan="magnify" viewBox="0 0 3150 3374.999861" height="4500" preserveAspectRatio="xMidYMid meet" version="1.2"><defs><clipPath id="4ed714c1f2"><path d="M 2205 3371.25 L 3150 3371.25 L 3150 3375 L 2205 3375 Z M 2205 3371.25 "/></clipPath><clipPath id="c1a286a84f"><path d="M 485.625 648.75 L 2563.125 648.75 L 2563.125 2726.25 L 485.625 2726.25 Z M 485.625 648.75 "/></clipPath></defs><g id="6193345c9b"><g clip-rule="nonzero" clip-path="url(#4ed714c1f2)"><path style=" stroke:none;fill-rule:nonzero;fill:#ffffff;fill-opacity:1;" d="M 2205 3371.25 L 3150 3371.25 L 3150 3375 L 2205 3375 Z M 2205 3371.25 "/><path style=" stroke:none;fill-rule:nonzero;fill:#ffffff;fill-opacity:1;" d="M 2205 3371.25 L 3150 3371.25 L 3150 3375 L 2205 3375 Z M 2205 3371.25 "/></g><g clip-rule="nonzero" clip-path="url(#c1a286a84f)"><path style=" stroke:none;fill-rule:evenodd;fill:#00bf63;fill-opacity:1;" d="M 1524.375 856.5 C 1983.324219 856.5 2355.375 1228.550781 2355.375 1687.5 C 2355.375 1819.234375 2324.792969 1943.53125 2270.445312 2053.949219 C 2255.488281 2084.332031 2250.078125 2119.828125 2257.304688 2155.082031 L 2326.425781 2491.84375 L 1976.074219 2426.289062 C 1942.472656 2420.003906 1908.828125 2425.136719 1879.753906 2438.921875 C 1772.128906 2489.921875 1651.734375 2518.5 1524.375 2518.5 C 1065.425781 2518.5 693.375 2146.449219 693.375 1687.5 C 693.375 1228.550781 1065.425781 856.5 1524.375 856.5 Z M 2563.125 1687.5 C 2563.125 1113.8125 2098.054688 648.75 1524.375 648.75 C 950.6875 648.75 485.625 1113.8125 485.625 1687.5 C 485.625 2261.179688 950.6875 2726.25 1524.375 2726.25 C 1677.382812 2726.25 1822.910156 2693.101562 1953.960938 2633.511719 L 2364.183594 2710.261719 C 2472.980469 2730.621094 2567.714844 2634.214844 2545.464844 2525.78125 L 2464.289062 2130.234375 C 2527.714844 1995.8125 2563.125 1845.648438 2563.125 1687.5 Z M 2563.125 1687.5 "/></g><path style=" stroke:none;fill-rule:evenodd;fill:#00bf63;fill-opacity:1;" d="M 797.25 1687.5 C 797.25 1572.757812 890.261719 1479.75 1005 1479.75 C 1119.738281 1479.75 1212.75 1572.757812 1212.75 1687.5 C 1212.75 1802.238281 1119.738281 1895.25 1005 1895.25 C 890.261719 1895.25 797.25 1802.238281 797.25 1687.5 Z M 797.25 1687.5 "/><path style=" stroke:none;fill-rule:evenodd;fill:#00bf63;fill-opacity:1;" d="M 1316.625 1687.5 C 1316.625 1572.757812 1409.632812 1479.75 1524.375 1479.75 C 1639.117188 1479.75 1732.125 1572.757812 1732.125 1687.5 C 1732.125 1802.238281 1639.117188 1895.25 1524.375 1895.25 C 1409.632812 1895.25 1316.625 1802.238281 1316.625 1687.5 Z M 1316.625 1687.5 "/><path style=" stroke:none;fill-rule:evenodd;fill:#00bf63;fill-opacity:1;" d="M 1836 1687.5 C 1836 1572.757812 1929.007812 1479.75 2043.75 1479.75 C 2158.492188 1479.75 2251.5 1572.757812 2251.5 1687.5 C 2251.5 1802.238281 2158.492188 1895.25 2043.75 1895.25 C 1929.007812 1895.25 1836 1802.238281 1836 1687.5 Z M 1836 1687.5 "/></g></svg>